<svg xmlns="http://www.w3.org/2000/svg" xmlns:xlink="http://www.w3.org/1999/xlink" width="648.914" height="870.052" viewBox="0 0 648.914 870.052"><defs><clipPath id="a"><rect width="648.914" height="870.052" fill="none"/></clipPath></defs><g transform="translate(-1361 -960)"><g transform="translate(1361 960)"><g clip-path="url(#a)"><path d="M642.008,487.532s-108.487-338.27-152.862-400.4S431.948,9.217,381.648.34c0,0-25.64-6.9-71.993,41.423s-58.187,63.116-58.187,63.116-76.929-63.116-126.24-16.764S20.689,189.7,20.689,189.7s-24.652,32.547-9.858,74.951l94.674,127.221s1.978,9.865-2.959,15.783-62.127,66.075-62.127,66.075S-16.787,509.232,4.914,615.742c0,0,30.569,142.015,172.584,221.9s254.45-.989,357.012-100.592c0,0,95.663-74.951,106.509-139.056s9.865-88.757.989-110.457" transform="translate(0 0)"/><path d="M496.17,449.411c-43.053-81.966-363.756-63.363-341.059,30.847,16.949,70.332,176.068,51.234,218.133,34.64,0,0,2.742,46.846-109.036,46.731C64.98,561,113.224,443.292,113.224,443.292s14.184-44.768,99.526-68.076c45.742-12.492,167.432-25.146,232.363-7.965A15,15,0,0,0,463.3,348.294C423.351,217.4,332.81-33.439,260.3,8.556c-9.95,5.763-32.84,26.7-5.245,88.9,27.61,62.2,68.354,165.492,32.006,172.329-25.988,4.89-51.636-35.328-64.777-52.061-22.975-29.279-34.98-47.171-58.218-77.632C148.305,119.43,118.5,91.511,93.448,83,70.982,75.365,43.48,73.982,29.922,95c-16.625,28.136,9.6,52.478,26.8,72.425,23.3,27.016,38.99,48.816,57.16,76.674a531.783,531.783,0,0,1,36.649,66.971s-74.936-7.949-71.761,67.666c0,0-70.957,3.623-62.645,73.715,3.415,28.785,15.6,57.33,28.082,83.171,18.579,38.441,42.675,74.712,72.742,105.15,32.524,32.925,72.788,58.643,118.376,68.6,64.962,14.191,130.018-6.149,185.153-40.5,36.8-22.937,69.984-54.958,84.152-96.9,13.419-39.708,10.692-86.1-8.459-122.563" transform="translate(103.889 26.054)" fill="#fff"/></g></g></g></svg>